PathFileType	4	(X/Y/Z)	C:/Users/opensim2020/Desktop/walking_exp_matlab/subject01_walking11_straight_04.trc																																																																																																																																		
DataRate	CameraRate	NumFrames	NumMarkers	Units	OrigDataRate	OrigDataStartFrame	OrigNumFrames																																																																																																																														
100	100	5	44	mm	100	3939	278																																																																																																																														
Frame#	Time	LFHD			RFHD			LBHD			RBHD			C7			T10			CLAV			STRN			RBAK			LSHO			LUPA			LELB			LFRM			LWRA			LWRB			LFIN			RSHO			RUPA			RELB			RFRM			RWRA			RWRB			RFIN			LASI			RASI			LPSI			RPSI			LTHI			LKNE			LTIB			LANK			LHEE			LTOE			RTHI			RKNE			RTIB			RANK			RHEE			RTOE			*39			*40			*41			*42			*43		
		X1	Y1	Z1	X2	Y2	Z2	X3	Y3	Z3	X4	Y4	Z4	X5	Y5	Z5	X6	Y6	Z6	X7	Y7	Z7	X8	Y8	Z8	X9	Y9	Z9	X10	Y10	Z10	X11	Y11	Z11	X12	Y12	Z12	X13	Y13	Z13	X14	Y14	Z14	X15	Y15	Z15	X16	Y16	Z16	X17	Y17	Z17	X18	Y18	Z18	X19	Y19	Z19	X20	Y20	Z20	X21	Y21	Z21	X22	Y22	Z22	X23	Y23	Z23	X24	Y24	Z24	X25	Y25	Z25	X26	Y26	Z26	X27	Y27	Z27	X28	Y28	Z28	X29	Y29	Z29	X30	Y30	Z30	X31	Y31	Z31	X32	Y32	Z32	X33	Y33	Z33	X34	Y34	Z34	X35	Y35	Z35	X36	Y36	Z36	X37	Y37	Z37	X38	Y38	Z38	X39	Y39	Z39	X40	Y40	Z40	X41	Y41	Z41	X42	Y42	Z42	X43	Y43	Z43	X44	Y44	Z44
																																																																																																																																					
70	0.69	-512.72144	1669.07251	966.67822	-483.89697	1676.43921	1077.96484	-628.96191	1632.70337	992.07434	-602.40063	1640.11768	1110.02905	-669.34827	1434.68481	1023.53363	-705.14703	1141.4707	1037.77441	-526.16431	1366.86292	1036.95288	-482.81503	1212.30762	1039.66272	-732.05713	1240.4043	1098.79822	-572.87634	1397.63513	870.62286	-597.21906	1211.93872	786.90967	-611.17694	1060.51965	787.16052	-563.14124	955.35913	768.43683	-476.18039	848.51447	794.03174	-528.98029	837.80786	767.41113	-473.85681	773.71246	760.55231	-606.97864	1397.32153	1179.49792	-668.84705	1200.03735	1281.21558	-661.41217	1075.42578	1290.54907	-625.56952	961.94324	1327.60608	-533.58655	852.96814	1318.85571	-579.79645	850.87268	1354.92102	-535.93024	775.96069	1357.38074	-527.4021	937.30737	947.88989	-544.45856	933.82935	1164.71179	-717.14526	947.09912	986.43073	-725.94727	944.08173	1131.56616	-525.888	607.02875	896.66565	-522.82837	472.91962	919.21539	-570.25977	287.62271	912.18677	-600.33936	73.67863	971.27307	-645.85187	44.69151	1023.42493	-452.07703	36.89479	970.18896	-548.29364	602.41833	1231.12366	-524.66351	446.74042	1218.75964	-671.75836	350.71796	1213.54358	-821.32721	212.53969	1163.68115	-876.69012	214.49609	1105.72192	-762.20715	83.23901	1179.14429	-496.29233	1710.47937	1055.69421	-1973.19946	1023.53845	3102.04932	-2012.58069	1022.17017	3140.71509	NaN	NaN	NaN	NaN	NaN	NaN
71	0.7	-505.46008	1669.2572	965.95129	-476.60574	1676.35205	1077.375	-621.79669	1633.30212	991.27692	-595.27832	1640.39685	1109.32935	-662.85352	1435.02905	1022.43762	-698.758	1141.81873	1036.61438	-519.58728	1367.23975	1035.92212	-476.43954	1212.51526	1038.34326	-725.65466	1240.71924	1097.55847	-566.32782	1397.99292	869.5946	-589.4552	1212.2688	785.57196	-601.62091	1060.74414	785.90564	-553.12067	956.12708	766.78223	-465.29596	850.08838	792.73242	-517.77606	838.95105	765.76758	-461.93799	775.435	759.08301	-600.64703	1397.50879	1178.45374	-663.00269	1200.19336	1279.73462	-656.02649	1075.58801	1288.76575	-621.2821	961.92688	1325.90027	-530.16467	852.02142	1317.3175	-576.42188	850.23035	1352.92163	-533.30756	774.88818	1355.48962	-521.33521	937.46539	946.28162	-537.73004	934.76837	1163.15686	-710.9809	947.28119	985.69293	-719.08966	944.85718	1130.93616	-522.06738	606.58148	896.1911	-519.76697	472.39838	918.63684	-568.52753	287.42496	911.96356	-600.04388	73.60767	971.27057	-645.52234	44.65553	1023.65405	-452.06607	36.83758	970.18079	-537.63812	603.97559	1230.1825	-512.02869	448.56757	1217.37097	-657.75977	351.28409	1212.0426	-805.46851	210.67873	1162.42737	-861.07672	211.26672	1104.5979	-742.37427	83.29887	1177.66821	-488.87445	1710.43542	1055.19507	-1973.13354	1023.37811	3101.89844	-2012.59009	1022.09564	3140.72729	NaN	NaN	NaN	NaN	NaN	NaN
72	0.71	-498.07922	1669.43896	965.3866	-469.3573	1676.21619	1076.77112	-614.67914	1633.91577	990.59326	-588.18768	1640.66235	1108.62268	-656.36023	1435.34729	1021.36981	-692.32245	1142.10278	1035.48364	-513.40808	1367.37622	1034.65576	-470.08603	1212.7345	1037.0647	-719.28143	1241.06409	1096.39709	-559.93872	1398.3457	868.51965	-582.06958	1212.77075	784.32733	-592.53717	1061.0072	784.47369	-543.0387	956.9494	765.21857	-454.35184	851.76196	791.50153	-506.64148	840.11816	764.32373	-450.09317	777.22388	757.63702	-594.3266	1397.76135	1177.35657	-657.33313	1200.37158	1278.38647	-650.68384	1075.77161	1287.0116	-617.01709	961.76996	1323.92798	-526.71198	851.16168	1315.73157	-573.1601	849.74384	1351.10889	-530.75085	773.88422	1353.5155	-515.99725	937.43555	944.85028	-531.09338	935.63641	1161.40833	-704.77917	947.54291	984.95746	-712.35217	945.61163	1130.35437	-518.49658	606.19751	895.78125	-516.95233	471.85147	918.15161	-567.18939	287.25381	911.76093	-599.54974	73.51513	971.38751	-645.61353	45.06431	1023.53186	-451.93497	36.76255	970.22205	-527.32654	605.68512	1229.3479	-499.78107	450.77908	1216.18408	-643.85657	351.37744	1210.7998	-789.27869	207.95691	1161.12598	-845.0069	207.00545	1103.31506	-722.37012	82.67783	1176.43274	-481.4978	1710.24353	1054.6073	-1973.09741	1023.48547	3101.98828	-2012.55786	1022.04431	3140.71191	NaN	NaN	NaN	NaN	NaN	NaN
73	0.72	-490.89932	1669.66589	964.8573	-462.15872	1676.08691	1076.26904	-607.62427	1634.49255	989.93054	-581.12109	1640.92407	1107.95923	-649.95721	1435.66016	1020.35413	-685.94299	1142.4502	1034.4469	-506.97549	1367.65698	1033.65503	-463.77615	1213.00647	1035.79089	-712.85205	1241.3385	1095.26038	-553.55634	1398.70349	867.53564	-574.54138	1213.19666	783.00598	-583.92169	1061.47729	782.55664	-533.29034	957.82318	763.78577	-443.48535	853.45013	790.2063	-495.56311	841.30005	762.8421	-438.42865	779.05475	756.25293	-587.96082	1398.01489	1176.32764	-651.67395	1200.5918	1277.05945	-645.42407	1075.94495	1285.33911	-612.71301	961.74921	1322.38733	-523.21808	850.44006	1314.25842	-569.91077	849.32892	1349.62463	-527.99548	773.11957	1352.01392	-509.77521	937.55261	943.29395	-524.47992	936.48291	1159.70386	-698.64813	947.81793	984.31122	-705.70752	946.29828	1129.84351	-514.64087	605.72559	895.21704	-514.35144	471.3757	917.60101	-566.11597	287.14505	911.52008	-599.1001	73.54487	971.79877	-645.5506	45.25254	1023.61536	-451.81619	36.66161	970.25836	-516.87817	607.21912	1228.50928	-487.42078	452.85974	1215.22498	-629.77283	350.76495	1209.7395	-772.5351	204.42702	1159.76111	-828.38721	201.63559	1101.97961	-701.30273	82.09576	1175.46008	-474.13928	1710.23499	1054.1499	-1973.10876	1023.32318	3101.98193	-2012.56433	1022.16467	3140.71899	NaN	NaN	NaN	NaN	NaN	NaN
74	0.73	-483.77475	1669.87146	964.36572	-455.0697	1676.0144	1075.77136	-600.60083	1635.03101	989.25006	-574.16223	1641.17554	1107.349	-643.52405	1435.96533	1019.26776	-679.54126	1142.75525	1033.31604	-500.56766	1367.92285	1032.66589	-457.39584	1213.20862	1034.59119	-706.51068	1241.65125	1094.18787	-547.12524	1399.05786	866.5415	-566.82593	1213.4635	781.71851	-575.28546	1061.7113	781.29663	-523.43903	958.71838	762.35168	-432.69135	855.19849	788.83228	-484.60199	842.52594	761.4057	-426.75684	780.76788	754.90979	-581.58569	1398.17542	1175.40527	-646.0849	1200.771	1275.68506	-640.18237	1076.12622	1283.75928	-608.43817	961.60272	1320.62805	-519.66638	849.72552	1312.77356	-566.41852	848.89484	1347.82227	-525.12134	772.25885	1350.28467	-503.63846	937.63422	941.83832	-517.88031	937.20941	1158.06873	-692.44086	948.03809	983.61639	-699.06073	946.90851	1129.31653	-510.90067	605.28204	894.65271	-511.95886	470.80945	917.04871	-565.2453	287.08929	911.23828	-599.38464	73.6905	971.65375	-645.4967	45.46929	1023.68256	-451.62509	36.54741	970.2749	-506.6936	608.82886	1227.8551	-475.23621	454.62241	1214.10242	-615.60394	349.42752	1208.63391	-755.08917	199.94693	1158.28967	-811.2663	195.21153	1100.46643	-679.69781	80.51792	1174.79858	-466.80972	1710.40308	1053.89197	-1973.14478	1023.42841	3101.91235	-2012.55664	1022.12665	3140.6958	NaN	NaN	NaN	NaN	NaN	NaN
